<svg width="1600" height="900" viewBox="0 0 1600 900" fill="none" xmlns="http://www.w3.org/2000/svg">
  <rect width="1600" height="900" rx="56" fill="#F9F5EC"/>
  <g opacity="0.22" stroke="#C6A86A" stroke-width="1">
    <path d="M120 120H1480"/>
    <path d="M120 260H1480"/>
    <path d="M120 400H1480"/>
    <path d="M120 540H1480"/>
    <path d="M120 680H1480"/>
    <path d="M240 80V820"/>
    <path d="M480 80V820"/>
    <path d="M720 80V820"/>
    <path d="M960 80V820"/>
    <path d="M1200 80V820"/>
    <path d="M1440 80V820"/>
  </g>
  <g opacity="0.18" stroke="#D7BE8D" stroke-width="2">
    <path d="M120 790H1480"/>
    <path d="M100 120C220 104 332 112 432 162C514 204 588 218 680 206C744 198 812 166 900 156C1022 142 1088 186 1180 206C1264 224 1358 212 1480 166"/>
    <path d="M120 644C240 690 324 708 434 676C566 638 654 576 772 578C900 580 988 662 1110 670C1220 678 1318 642 1480 568"/>
    <path d="M120 502C238 446 334 428 422 450C538 478 610 544 716 548C856 552 960 472 1072 456C1184 440 1316 468 1480 542"/>
  </g>
  <g opacity="0.74" fill="#F1E4C4" stroke="#C6A86A" stroke-width="4" stroke-linejoin="round">
    <path d="M208 278C260 228 330 210 420 228C474 238 538 272 588 306C642 342 704 352 760 328C834 298 874 232 952 214C1020 198 1096 226 1162 264C1228 302 1306 334 1390 328C1416 326 1442 320 1472 304V432C1440 446 1412 450 1386 446C1290 430 1220 384 1144 366C1066 348 992 358 924 394C848 434 776 490 694 494C620 498 568 458 506 418C442 376 364 348 290 356C254 360 228 372 198 394L208 278Z"/>
    <path d="M282 494C352 456 428 460 498 500C576 544 644 626 734 640C814 652 892 608 974 578C1034 556 1104 556 1170 580C1248 610 1302 668 1378 694C1402 702 1430 708 1470 708V782H218V648C236 590 246 530 282 494Z"/>
    <path d="M106 250C142 238 178 246 204 270C228 292 226 334 200 360C174 388 132 400 102 378C72 356 62 308 78 278C84 266 92 256 106 250Z"/>
  </g>
  <g opacity="0.9">
    <circle cx="268" cy="266" r="12" fill="#9D7B38"/>
    <circle cx="786" cy="312" r="12" fill="#9D7B38"/>
    <circle cx="1252" cy="610" r="12" fill="#9D7B38"/>
    <circle cx="1068" cy="242" r="9" fill="#C6A86A"/>
    <circle cx="580" cy="598" r="9" fill="#C6A86A"/>
  </g>
  <g opacity="0.6" stroke="#9D7B38" stroke-width="2" stroke-dasharray="8 10">
    <path d="M268 266C386 208 520 188 682 216C820 240 942 286 1068 242"/>
    <path d="M786 312C910 356 1022 452 1252 610"/>
    <path d="M580 598C718 580 818 592 930 628C1024 658 1106 662 1252 610"/>
  </g>
</svg>
